<?xml version="1.0" encoding="utf-8"?>
<!-- Generator: Adobe Illustrator 22.0.0, SVG Export Plug-In . SVG Version: 6.00 Build 0)  -->
<svg version="1.1" id="Livello_1" xmlns="http://www.w3.org/2000/svg" xmlns:xlink="http://www.w3.org/1999/xlink" x="0px" y="0px"
	 viewBox="0 0 640 480" style="enable-background:new 0 0 640 480;" xml:space="preserve">
<style type="text/css">
	.st0{fill:#FFFFFF;stroke:#000000;stroke-width:10.8568;stroke-linejoin:round;}
</style>
<title>New Life Links</title>
<g>
	<title>Layer 1</title>
	<g id="layer1">
		<path id="path3422" class="st0" d="M372.2,17.8c-39.4,0-73.6,19-92.7,47.2c-17.7-11.2-39.3-18-62.6-18c-60.1,0-109,43.8-109,97.7
			c0,4,0.8,7.7,1.3,11.6c-51.9,7.4-91.8,47.4-91.8,96c0,48.2,39.1,88.1,90.3,96c-1,5.4-1.9,10.9-1.9,16.6c0,53.9,48.9,97.6,109,97.6
			c29.5,0,56.1-10.5,75.7-27.6c20,21.3,49.5,35.2,83,35.2c47.8,0,87.9-27.8,102.6-66.2c11.8,3.9,24.3,6.4,37.6,6.4
			c60.1,0,108.9-43.8,108.9-97.7c0-27.1-12.3-51.6-32.2-69.3c10.1-14.8,16.3-31.9,16.3-50.5c0-53.9-48.9-97.6-109-97.6
			c-6.3,0-12.5,0.6-18.5,1.6C469.4,51.9,425.2,17.8,372.2,17.8z"/>
		<path id="path3424" class="st0" d="M0-11"/>
		<path id="path3426" class="st0" d="M0-11"/>
	</g>
</g>
</svg>
