<?xml version="1.0" encoding="utf-8"?>
<!-- Generator: Adobe Illustrator 22.0.0, SVG Export Plug-In . SVG Version: 6.00 Build 0)  -->
<svg version="1.1" id="Capa_1" xmlns="http://www.w3.org/2000/svg" xmlns:xlink="http://www.w3.org/1999/xlink" x="0px" y="0px"
	 viewBox="0 0 60 60" style="enable-background:new 0 0 60 60;" xml:space="preserve">
<style type="text/css">
	.st0{display:none;fill:#FFC364;}
	.st1{display:none;}
</style>
<path class="st0" d="M51,26.2C50.4,17.2,43,10,34.1,10c-5.4,0-10.7,2.7-13.9,7c-0.1,0-0.2-0.1-0.2-0.1c-0.2-0.1-0.4-0.2-0.6-0.3
	c-0.1,0-0.2-0.1-0.3-0.1c-0.2-0.1-0.4-0.1-0.6-0.2c-0.1,0-0.2-0.1-0.3-0.1c-0.2-0.1-0.5-0.1-0.7-0.1c-0.1,0-0.2,0-0.3,0
	c-0.3,0-0.7-0.1-1-0.1c-5,0-9,4-9,9c0,0.1,0,0.3,0,0.4v0c-4.2,2.3-7,7-7,11.8C0,44.2,5.8,50,12.8,50h24.5c0.1,0,0.2,0,0.3,0l0.1,0
	l0.1,0c0.1,0,0.2,0,0.3,0H48c6.6,0,12-5.4,12-12C60,32.5,56.2,27.6,51,26.2z"/>
<path d="M51,26.2C50.4,17.2,43,10,34.1,10c-5.4,0-10.7,2.7-13.9,7c-0.1,0-0.2-0.1-0.2-0.1c-0.2-0.1-0.4-0.2-0.6-0.3
	c-0.1,0-0.2-0.1-0.3-0.1c-0.2-0.1-0.4-0.1-0.6-0.2c-0.1,0-0.2-0.1-0.3-0.1c-0.2-0.1-0.5-0.1-0.7-0.1c-0.1,0-0.2,0-0.3,0
	c-0.3,0-0.7-0.1-1-0.1c-5,0-9,4-9,9c0,0.1,0,0.3,0,0.4v0c-4.2,2.3-7,7-7,11.8C0,44.2,5.8,50,12.8,50h24.5c0.1,0,0.2,0,0.3,0l0.1,0
	l0.1,0c0.1,0,0.2,0,0.3,0H48c6.6,0,12-5.4,12-12C60,32.5,56.2,27.6,51,26.2z M48,48h-9.8c-0.1,0-0.1,0-0.2,0l-0.3,0l-0.2,0
	c-0.1,0-0.1,0-0.2,0H12.8C6.9,48,2,43.1,2,37.2c0-4.2,2.7-8.5,6.4-10.3L9,26.6V26c0-0.1,0-0.3,0-0.4l0-0.2l0-0.2c0-0.1,0-0.2,0-0.2
	c0-3.9,3.1-7,7-7c0.3,0,0.6,0,0.9,0.1c0.1,0,0.2,0,0.2,0c0.3,0,0.5,0.1,0.8,0.2c0,0,0.1,0,0.1,0c0.3,0.1,0.6,0.2,0.8,0.3
	c0.1,0,0.1,0.1,0.2,0.1c0.2,0.1,0.5,0.2,0.7,0.4c1.9,1.2,3.2,3.4,3.2,5.9c0,0.6,0.4,1,1,1s1-0.4,1-1c0-2.8-1.2-5.2-3.2-6.9
	c2.9-3.8,7.6-6.1,12.3-6.1c7.7,0,14.2,6.1,14.8,13.9c-1-0.1-2.6-0.1-4.1,0.1c-0.5,0.1-0.9,0.6-0.8,1.1c0.1,0.5,0.5,0.9,1,0.9
	c0,0,0.1,0,0.2,0c2.2-0.3,4.5,0,4.7,0c4.7,0.9,8.2,5.2,8.2,10C58,43.5,53.5,48,48,48z"/>
<path class="st1" d="M10.1,16.7c0.2,0.1,0.5,0.2,0.7,0.4c1.9,1.2,3.2,3.4,3.2,5.9"/>
</svg>
